<svg width="40" height="40" viewBox="0 0 40 40" fill="none" xmlns="http://www.w3.org/2000/svg">
<path d="M6.37333 8.72513C9.94667 3.82225 14.6667 0 20 0C25.3333 0 30.0533 3.82225 33.6267 8.72513C31.36 9.14538 29.3333 10.146 28 11.5468C27.2314 10.7566 26.2624 10.0882 25.1487 9.57979C24.0349 9.07142 22.7983 8.73314 21.5099 8.58439C20.2214 8.43563 18.9065 8.47933 17.6406 8.71297C16.3748 8.94661 15.1829 9.36559 14.1333 9.94585C13.3333 10.3861 12.5867 10.9264 12 11.5468C10.6667 10.146 8.64 9.14538 6.37333 8.72513ZM28 32.1389L20 26.1354L12 32.1389L4 26.1354L0.613333 28.6769C1.91767 32.534 5.20879 35.8449 9.76379 37.8824C14.3188 39.9198 19.7652 40.5172 24.9067 39.5433C28.3975 38.8737 31.5838 37.5115 34.1315 35.5996C36.6792 33.6877 38.4944 31.2965 39.3867 28.6769L36 26.1354L28 32.1389ZM12 27.8964L20 21.8929L28 27.8964L36 21.8929L40 24.8946C39.6533 20.2719 38.1333 15.7293 35.4933 11.5268C32.4 11.7269 30 13.668 30 16.0094H26C26 14.8152 25.3679 13.67 24.2426 12.8256C23.1174 11.9812 21.5913 11.5068 20 11.5068C18.4087 11.5068 16.8826 11.9812 15.7574 12.8256C14.6321 13.67 14 14.8152 14 16.0094H10C10 13.668 7.6 11.7269 4.50667 11.5268C1.86667 15.7293 0.346667 20.2719 0 24.8946L4 21.8929L12 27.8964Z" fill="black"/>
</svg>
