<svg width="21" height="24" viewBox="0 0 21 24" fill="none" xmlns="http://www.w3.org/2000/svg">
<g clip-path="url(#clip0_173_1348)">
<path d="M11.24 8.75052L10.894 17.7505M6.106 17.7505L5.76 8.75052M15.728 5.54052C16.07 5.59252 16.41 5.64752 16.75 5.70652M15.728 5.54052L14.66 19.4235C14.6164 19.9887 14.3611 20.5167 13.945 20.9018C13.529 21.2868 12.9829 21.5007 12.416 21.5005H4.584C4.0171 21.5007 3.47102 21.2868 3.05498 20.9018C2.63894 20.5167 2.38359 19.9887 2.34 19.4235L1.272 5.54052M15.728 5.54052C14.5739 5.36604 13.4138 5.23362 12.25 5.14352M1.272 5.54052C0.93 5.59152 0.59 5.64652 0.25 5.70552M1.272 5.54052C2.42613 5.36604 3.58623 5.23362 4.75 5.14352M12.25 5.14352V4.22752C12.25 3.04752 11.34 2.06352 10.16 2.02652C9.05362 1.99116 7.94638 1.99116 6.84 2.02652C5.66 2.06352 4.75 3.04852 4.75 4.22752V5.14352M12.25 5.14352C9.75372 4.9506 7.24628 4.9506 4.75 5.14352" stroke="black" stroke-width="1.5" stroke-linecap="round" stroke-linejoin="round"/>
</g>
<defs>
<clipPath id="clip0_173_1348">
<rect width="20.5" height="23.5005" fill="white" transform="translate(0.25)"/>
</clipPath>
</defs>
</svg>
